<svg width="32" height="30" viewBox="0 0 32 30" fill="none" xmlns="http://www.w3.org/2000/svg">
<g clip-path="url(#clip0_218_1955)">
<path d="M28.5068 10.1142C29.2236 10.0861 30.3833 10.0335 31.0569 10.2718C31.1751 10.3131 31.2446 10.3581 31.299 10.4707C31.2671 11.2964 29.4863 13.291 28.8746 13.8558C26.9588 15.6291 24.6939 16.5166 22.0838 16.4191C21.1174 16.404 20.0647 16.1695 19.1809 15.7811C19.3517 15.7829 19.5243 15.7848 19.6951 15.7754C20.5413 15.7266 21.412 15.4245 22.1813 15.0868C24.1066 14.2405 25.7166 12.9589 27.1164 11.3977C27.4316 11.0468 27.7056 10.6621 28.0171 10.3075C28.1803 10.1217 28.276 10.1292 28.5106 10.1142H28.5068Z" fill="white"/>
<path d="M4.76442 1.49383C4.88076 1.48633 5.00273 1.49008 5.11719 1.50885C5.15285 1.51448 5.18662 1.52386 5.22227 1.53324C5.25605 1.54262 5.28983 1.55388 5.3236 1.56702C5.35738 1.58015 5.38928 1.59516 5.42118 1.61017C5.45308 1.62706 5.48498 1.64395 5.515 1.66271C5.54502 1.68148 5.57505 1.70212 5.60319 1.72464C5.63134 1.74715 5.65761 1.76967 5.68388 1.79407C5.71015 1.81846 5.73454 1.84473 5.75706 1.871C5.77958 1.89727 5.8021 1.92542 5.82274 1.95544C6.001 2.20876 6.08169 2.5484 6.02164 2.85426C5.95034 3.21078 5.75706 3.37778 5.47184 3.56918C5.50186 4.82077 5.38928 6.01982 5.10969 7.23951C5.86589 7.23951 6.52265 7.39337 7.23007 7.64482C7.60348 7.00495 8.03882 6.37071 8.52294 5.80965C8.79878 5.49066 9.1159 5.19606 9.37484 4.8658C9.60189 4.57495 9.66757 4.18653 9.99032 3.97074C10.2905 3.77184 10.7165 3.66488 11.0711 3.7512C11.3076 3.80749 11.5234 3.94822 11.6491 4.16026C11.7748 4.3723 11.7842 4.61811 11.7185 4.85079C11.6341 5.15478 11.4371 5.43061 11.1593 5.58261C10.8028 5.77776 10.3862 5.74961 10.011 5.63139L9.95842 5.6145C9.15718 6.35007 8.48353 7.11941 7.87744 8.02198C8.62427 8.5699 9.28477 9.22666 9.62629 10.1048C9.94904 10.9361 9.86835 11.7392 9.51933 12.5442C8.71246 14.0416 7.06494 15.2538 5.47935 15.8149C4.26341 16.2446 2.7829 16.299 1.60449 15.7229C0.917713 15.387 0.422332 14.8522 0.178394 14.1242C-0.217535 12.9514 0.114595 11.5591 0.649382 10.4839C1.39621 8.97897 2.57837 7.98633 4.15833 7.44967C4.65184 6.26188 4.78131 4.8658 4.8939 3.59545C4.53737 3.44909 4.25778 3.2408 4.11142 2.86927C4.00446 2.59718 3.99508 2.27631 4.12456 2.00986C4.26154 1.72839 4.48671 1.59516 4.77005 1.49008L4.76442 1.49383Z" fill="white"/>
<path d="M30.1213 0.0133253C30.2377 0.000190228 30.3728 -0.0166978 30.4835 0.0320898C30.5735 0.0733715 30.5998 0.129665 30.6186 0.221611C30.6993 0.608158 30.5491 1.18235 30.4835 1.57453C30.0388 4.25221 29.0161 6.93928 27.4699 9.176C25.5784 11.91 22.7525 14.218 19.4125 14.811C17.795 15.0981 17.6824 14.4995 16.4814 13.6569C16.9355 13.1991 22.4955 6.97305 22.548 6.84733C22.5593 6.82106 22.5517 6.78916 22.5517 6.75914C21.895 7.25827 21.2739 7.85498 20.6415 8.39165C18.8233 9.93033 17.0125 11.5122 15.1323 12.972C14.7345 12.8032 14.3348 12.6718 13.9126 12.5761C14.2053 11.9832 14.5262 11.4071 14.8733 10.8442C15.2205 10.2812 15.5939 9.73706 15.9917 9.20978C19.1948 4.9221 24.7115 0.790173 30.1213 0.0133253Z" fill="white"/>
<path d="M3.94174 10.4032C4.08248 10.5026 4.18756 10.6415 4.24948 10.8104C4.3433 11.0675 4.33204 11.3621 4.26261 11.636V11.6379V11.6398V11.6416V11.6435V11.6454V11.6473V11.6491L4.26074 11.6642V11.666V11.6679V11.6698V11.6717V11.6735V11.6754V11.6773V11.6792V11.681V11.6848V11.6867V11.6886V11.6904V11.6923V11.6942V11.6961V11.6979V11.6998V11.7017V11.7036V11.7054L4.25511 11.7317V11.7336V11.7355C4.09186 12.4466 3.51954 12.9195 2.98663 12.7938L2.96599 12.7881H2.96224L2.9416 12.7825H2.93972H2.93785L2.91908 12.7769H2.9172H2.91533L2.89656 12.7694H2.89469H2.89281C2.88718 12.7675 2.88155 12.7656 2.87592 12.7619H2.87405L2.87029 12.76L2.85904 12.7544L2.85528 12.7525L2.84778 12.7487L2.84402 12.7469L2.84027 12.745L2.83652 12.7431L2.83277 12.7412L2.82526 12.7375L2.82151 12.7356L2.81775 12.7337L2.814 12.7319L2.81025 12.73L2.80274 12.7262L2.79899 12.7243L2.79148 12.7206L2.78773 12.7187L2.77835 12.7131L2.7746 12.7112L2.77084 12.7093L2.76709 12.7075L2.75583 12.7018L2.75208 12.7C2.5588 12.6005 2.41807 12.4373 2.34489 12.229C2.28484 12.0638 2.26983 11.8837 2.28297 11.7036V11.6979V11.6923V11.6792V11.6735V11.6679V11.6623V11.6435V11.6379V11.6323V11.6304V11.6285V11.6191V11.6135V11.6004V11.5947V11.5929V11.5872L2.28484 11.5703V11.5647V11.561V11.5572L2.28672 11.5384V11.5328V11.5291V11.5272L2.2886 11.5028V11.499V11.4972L2.29235 11.4709V11.4671V11.4653V11.4634L2.2961 11.439V11.4334V11.4315L2.29798 11.4259L2.30173 11.4015V11.3996V11.3977L2.30736 11.3658L2.31487 11.3339L2.32237 11.302C2.48375 10.5908 3.05794 10.118 3.59085 10.2437L3.61149 10.2493C3.61899 10.2512 3.6265 10.2531 3.63213 10.255C3.63964 10.2568 3.64526 10.2587 3.65277 10.2625L3.67341 10.27L3.69405 10.2775L3.69781 10.2793L3.71469 10.2869L3.72032 10.2887L3.73721 10.2962H3.73909L3.74284 10.2981L3.7616 10.3075H3.76348L3.76536 10.3094L3.77849 10.3169L3.78412 10.3206L3.78787 10.3225L3.80101 10.3319L3.81039 10.3375L3.82353 10.3469L3.83103 10.3525H3.83291L3.83854 10.3563L3.84417 10.36L3.85355 10.3675L3.85918 10.3713L3.86481 10.375L3.87419 10.3825L3.87982 10.3863L3.8892 10.3938L3.89483 10.3976L3.90046 10.4013L3.91547 10.4144L3.9211 10.4182L3.93611 10.4313L3.94174 10.4032Z" fill="#053D27"/>
<path fill-rule="evenodd" clip-rule="evenodd" d="M10.9944 27.0866C10.9944 27.0866 12.3923 28.0399 13.5857 28.0605C14.7792 28.0812 19.8287 25.1183 19.8287 25.1183L20.2209 20.8531C20.2209 20.8531 19.2057 17.8827 18.8342 17.5018C18.4645 17.1209 18.3632 17.6388 17.8753 18.1379L17.6201 15.9744C17.6201 15.9744 15.2727 13.9253 14.0999 13.9515C12.9271 13.9778 8.13468 18.971 8.13468 18.971L6.54346 21.8176C6.54346 21.8176 6.85495 23.6359 8.13656 24.88C9.13107 25.8463 12.0433 24.499 13.3005 23.8479C12.1803 25.3622 11.3378 26.55 11.3378 26.55L10.9925 27.0848L10.9944 27.0866Z" fill="#053D27"/>
<path d="M11.7661 13.5481C12.7643 13.5031 13.7176 13.7339 14.6577 14.0397C14.622 14.1767 14.5826 14.3137 14.5376 14.4488C13.5262 17.5712 11.3645 19.9243 8.46352 21.401C7.87244 21.6938 7.26259 21.9208 6.64337 22.1441C6.21741 20.7818 6.09169 19.5546 6.38629 18.151C8.73185 17.2991 10.4826 15.6535 11.7661 13.5481ZM20.0299 20.2545C20.1782 20.3915 20.2082 20.7931 20.2476 20.9957C20.5309 22.4274 20.4728 23.7503 20.2776 25.1839C20.1763 25.9233 20.0506 26.6663 20.0656 27.415C20.0825 28.3082 20.3058 29.1695 20.6191 30.0008C19.0241 28.8993 17.6131 28.6535 15.7479 28.4489C14.9016 28.3889 14.0778 28.1431 13.2334 28.0568C14.6051 27.6214 15.7479 26.9891 16.8475 26.0527C18.6413 24.5234 19.8441 22.6414 20.0299 20.2545ZM16.7349 15.2763C17.5042 15.7736 18.6564 16.8657 18.9397 17.7607C19.2118 18.6201 18.298 20.915 17.8701 21.705C16.5153 24.2138 13.8527 26.3267 11.1356 27.1448C10.9029 27.0547 10.6834 26.9459 10.4601 26.8333C10.34 26.7639 10.2199 26.6907 10.1035 26.6157C9.98531 26.5406 9.87085 26.4618 9.75639 26.3811C9.6438 26.3004 9.53121 26.216 9.42238 26.1297C9.31355 26.0433 9.20471 25.9533 9.09963 25.8632C8.99455 25.7713 8.89135 25.6774 8.79002 25.5817C8.68869 25.486 8.59112 25.3866 8.49542 25.2853C8.39972 25.1839 8.3059 25.0807 8.21395 24.9757C8.122 24.8706 8.03381 24.7617 7.9475 24.6529C9.57812 24.3733 11.1862 23.6134 12.4941 22.6113C14.8566 20.8006 16.3465 18.2317 16.733 15.2819L16.7349 15.2763Z" fill="white"/>
</g>
<defs>
<clipPath id="clip0_218_1955">
<rect width="31.2991" height="30.001" fill="white"/>
</clipPath>
</defs>
</svg>
