<svg width="89" height="89" viewBox="0 0 89 89" fill="none" xmlns="http://www.w3.org/2000/svg">
<g clip-path="url(#clip0_629_11642)">
<path d="M60.4153 55.6034C57.9632 58.1302 54.9003 61.2756 48.9535 61.7201L45.3975 61.9859C41.0942 62.3076 37.0632 61.0358 34.0498 58.4101C31.1059 55.8445 29.3161 52.1656 29.0084 48.0497L28.6447 43.1841C28.3371 39.0682 29.5601 35.1641 32.0899 32.1891C34.6794 29.1446 38.4767 27.2902 42.78 26.9686L46.336 26.7028C52.2901 26.2577 55.7791 28.9108 58.5796 31.0452C61.4862 33.244 63.9954 35.1682 70.2689 34.6992C71.2256 34.6275 72.1752 34.4795 73.1087 34.2575L73.0828 34.2038C72.6375 33.2987 72.1291 32.4259 71.5612 31.5921L66.8256 24.6421C62.4846 18.2733 55.0517 14.6927 47.3658 15.2675L38.9779 15.8945C31.2922 16.4687 24.4741 21.1146 21.1282 28.0579L17.4784 35.6347C14.134 42.5787 14.749 50.8056 19.0885 57.175L23.8242 64.1251C28.1651 70.4939 35.5982 74.0746 43.2838 73.4999L51.6717 72.8729C59.3576 72.2986 66.1756 67.6527 69.5215 60.7093L73.1722 53.1446C73.6098 52.2354 73.9828 51.297 74.2887 50.3357L74.3064 50.2811C73.3504 50.1948 72.3891 50.1861 71.4317 50.2545C65.1582 50.7235 62.9618 52.9848 60.4153 55.6034Z" fill="#006BFF"/>
<path d="M46.6638 31.1127L43.1078 31.3785C36.5579 31.8681 32.6043 36.8678 33.0519 42.8554L33.4156 47.721C33.8631 53.7086 38.5161 58.065 45.066 57.5755L48.622 57.3096C58.1656 56.5963 56.6884 46.9213 71.1001 45.844C72.4653 45.7404 73.8374 45.7639 75.1983 45.9146C75.4506 43.4064 75.2612 40.8729 74.6388 38.4301C73.3151 38.7801 71.962 39.0073 70.5967 39.1091C56.1803 40.1867 56.2074 30.3993 46.6638 31.1127Z" fill="#006BFF"/>
<path d="M83.7443 48.8513C81.1558 47.2375 78.2344 46.2324 75.201 45.9117L75.2064 45.9838C75.0559 47.4377 74.7582 48.8724 74.3183 50.2663C76.8191 50.4643 79.2374 51.2554 81.3719 52.5733C81.3734 52.5925 81.363 52.6174 81.3577 52.6397C77.7477 68.4168 64.1859 80.0791 48.0462 81.2856C27.8042 82.7986 9.90246 67.387 8.38941 47.145C6.87636 26.903 22.288 9.00136 42.53 7.4883C58.6697 6.28189 73.8146 15.7985 79.7299 30.8636C79.7316 30.8853 79.7453 30.9085 79.7539 30.927C77.8393 32.5479 75.5654 33.6887 73.1215 34.2545C73.7633 35.5694 74.2708 36.9457 74.6367 38.3623C74.6368 38.3849 74.6385 38.4074 74.6417 38.4298C77.5936 37.6627 80.3334 36.2352 82.6532 34.255C84.8821 32.3318 84.2782 30.3931 83.8329 29.2523C77.2081 12.3568 60.2272 1.68109 42.13 3.03383C19.4416 4.72974 2.16749 24.7949 3.86341 47.4833C5.55934 70.1719 25.6245 87.4459 48.3129 85.75C66.4101 84.3972 81.6152 71.3158 85.6546 53.6231C85.9253 52.4287 86.2343 50.4218 83.7443 48.8513Z" fill="#006BFF"/>
<path d="M73.1085 34.2558C72.1759 34.4833 71.2266 34.6351 70.2694 34.7098C63.9959 35.1787 61.4875 33.2665 58.5823 31.0554C55.7796 28.9213 52.2903 26.2658 46.3363 26.7108L42.7803 26.9766C38.4747 27.2985 34.6799 29.155 32.0903 32.1996C29.5608 35.1747 28.3377 39.0788 28.6453 43.1944L29.009 48.06C29.3166 52.1759 31.1066 55.8547 34.0503 58.4207C37.0637 61.0464 41.0921 62.3157 45.3978 61.9939L48.9538 61.7281C54.9078 61.283 57.9637 58.1408 60.418 55.6135C62.9631 53.0072 65.1584 50.7314 71.4319 50.2625C72.3889 50.1912 73.3499 50.1963 74.306 50.2772C74.7472 48.8837 75.0444 47.4488 75.1938 45.9947C75.1936 45.9706 75.1918 45.9465 75.1884 45.9226C73.8275 45.774 72.4557 45.7513 71.0905 45.8544C56.6741 46.932 58.1561 56.6089 48.6125 57.3223L45.0565 57.5881C38.5067 58.0777 33.8535 53.7189 33.4059 47.7313L33.0415 42.8562C32.594 36.8686 36.5476 31.8688 43.0974 31.3792L46.6534 31.1134C56.1971 30.4 56.1747 40.1848 70.5861 39.1076C71.9519 39.0078 73.3051 38.7814 74.6285 38.4308L74.6234 38.3636C74.2579 36.9468 73.7503 35.5707 73.1085 34.2558Z" fill="#0AE8F0"/>
<path d="M73.1085 34.2558C72.1759 34.4833 71.2266 34.6351 70.2694 34.7098C63.9959 35.1787 61.4875 33.2665 58.5823 31.0554C55.7796 28.9213 52.2903 26.2658 46.3363 26.7108L42.7803 26.9766C38.4747 27.2985 34.6799 29.155 32.0903 32.1996C29.5608 35.1747 28.3377 39.0788 28.6453 43.1944L29.009 48.06C29.3166 52.1759 31.1066 55.8547 34.0503 58.4207C37.0637 61.0464 41.0921 62.3157 45.3978 61.9939L48.9538 61.7281C54.9078 61.283 57.9637 58.1408 60.418 55.6135C62.9631 53.0072 65.1584 50.7314 71.4319 50.2625C72.3889 50.1912 73.3499 50.1963 74.306 50.2772C74.7472 48.8837 75.0444 47.4488 75.1938 45.9947C75.1936 45.9706 75.1918 45.9465 75.1884 45.9226C73.8275 45.774 72.4557 45.7513 71.0905 45.8544C56.6741 46.932 58.1561 56.6089 48.6125 57.3223L45.0565 57.5881C38.5067 58.0777 33.8535 53.7189 33.4059 47.7313L33.0415 42.8562C32.594 36.8686 36.5476 31.8688 43.0974 31.3792L46.6534 31.1134C56.1971 30.4 56.1747 40.1848 70.5861 39.1076C71.9519 39.0078 73.3051 38.7814 74.6285 38.4308L74.6234 38.3636C74.2579 36.9468 73.7503 35.5707 73.1085 34.2558Z" fill="#0AE8F0"/>
</g>
<defs>
<clipPath id="clip0_629_11642">
<rect width="82.9469" height="82.9469" fill="white" transform="translate(0 6.18288) rotate(-4.27481)"/>
</clipPath>
</defs>
</svg>
