<svg width="77" height="77" viewBox="0 0 77 77" fill="none" xmlns="http://www.w3.org/2000/svg">
<path d="M69.6543 25.7877C71.406 25.716 74.2399 25.582 75.8862 26.1896C76.1751 26.2948 76.3447 26.4096 76.4777 26.6967C76.3998 28.8017 72.048 33.8871 70.5531 35.3271C65.8712 39.848 60.3363 42.1109 53.9577 41.8621C51.5961 41.8238 49.0236 41.2258 46.8638 40.2355C47.2811 40.2403 47.7029 40.2451 48.1202 40.2212C50.1883 40.0968 52.3161 39.3265 54.1962 38.4654C58.901 36.3078 62.8355 33.0403 66.2564 29.06C67.0268 28.1654 67.6963 27.1847 68.4575 26.2805C68.8564 25.8069 69.0903 25.826 69.6635 25.7877H69.6543Z" fill="#FAB403"/>
<path d="M11.6325 3.80991C11.9168 3.79078 12.2149 3.80035 12.4946 3.84819C12.5817 3.86254 12.6643 3.88646 12.7514 3.91038C12.8339 3.9343 12.9165 3.963 12.999 3.99649C13.0815 4.02998 13.1595 4.06825 13.2375 4.10652C13.3154 4.14958 13.3934 4.19264 13.4667 4.24048C13.5401 4.28832 13.6135 4.34094 13.6823 4.39835C13.751 4.45576 13.8152 4.51317 13.8794 4.57536C13.9436 4.63755 14.0033 4.70453 14.0583 4.77151C14.1133 4.83848 14.1683 4.91024 14.2188 4.98679C14.6544 5.63263 14.8516 6.49854 14.7049 7.27834C14.5306 8.18731 14.0583 8.61309 13.3613 9.10106C13.4346 12.292 13.1595 15.349 12.4762 18.4586C14.3242 18.4586 15.9292 18.8509 17.658 19.492C18.5705 17.8606 19.6344 16.2436 20.8175 14.8132C21.4916 13.9999 22.2666 13.2488 22.8994 12.4068C23.4542 11.6653 23.6147 10.675 24.4035 10.1248C25.1372 9.61773 26.1781 9.34504 27.0448 9.56511C27.6226 9.70863 28.1499 10.0674 28.4571 10.608C28.7644 11.1486 28.7873 11.7753 28.6268 12.3686C28.4205 13.1436 27.939 13.8468 27.2603 14.2343C26.389 14.7319 25.371 14.6601 24.4539 14.3587L24.3255 14.3157C22.3674 16.191 20.7212 18.1525 19.24 20.4536C21.0651 21.8505 22.6793 23.5249 23.5138 25.7639C24.3026 27.8832 24.1054 29.9307 23.2525 31.9831C21.2806 35.8008 17.2545 38.8912 13.3796 40.3217C10.4081 41.4172 6.79007 41.556 3.91029 40.0873C2.23195 39.2309 1.02135 37.8675 0.425218 36.0113C-0.542348 33.0212 0.269307 29.4715 1.57621 26.7302C3.40129 22.8934 6.29023 20.3627 10.1513 18.9944C11.3573 15.9662 11.6738 12.4068 11.9489 9.16803C11.0776 8.79488 10.3944 8.26385 10.0367 7.31661C9.77531 6.62293 9.75238 5.80486 10.0688 5.12552C10.4035 4.40792 10.9538 4.06825 11.6462 3.80035L11.6325 3.80991Z" fill="#FAB403"/>
<path d="M73.5979 0.0353036C73.8822 0.00181531 74.2124 -0.041241 74.483 0.0831439C74.7031 0.188393 74.7673 0.331914 74.8131 0.566332C75.0103 1.55184 74.6435 3.01576 74.483 4.01562C73.3962 10.8424 70.897 17.6932 67.1184 23.3958C62.4961 30.3661 55.5902 36.2505 47.4278 37.7622C43.475 38.4942 43.1998 36.9681 40.265 34.82C41.3747 33.6527 54.962 17.7793 55.0904 17.4588C55.1179 17.3918 55.0995 17.3105 55.0995 17.2339C53.4946 18.5065 51.9767 20.0278 50.4314 21.396C45.9879 25.3189 41.5628 29.3519 36.968 33.0739C35.9958 32.6433 35.0191 32.3084 33.9873 32.0644C34.7027 30.5527 35.4868 29.084 36.3351 27.6488C37.1835 26.2135 38.096 24.8262 39.0682 23.4819C46.8958 12.5503 60.3776 2.01589 73.5979 0.0353036Z" fill="#FAB403"/>
<path d="M9.62402 26.5244C9.96794 26.778 10.2247 27.132 10.3761 27.5626C10.6053 28.218 10.5778 28.9691 10.4082 29.6675V29.6723V29.6771V29.6819V29.6867V29.6915V29.6962V29.701L10.4036 29.7393V29.7441V29.7489V29.7537V29.7584V29.7632V29.768V29.7728V29.7776V29.7824V29.7919V29.7967V29.8015V29.8063V29.8111V29.8159V29.8206V29.8254V29.8302V29.835V29.8398V29.8446L10.3898 29.9115V29.9163V29.9211C9.99087 31.7342 8.59226 32.9398 7.28994 32.6193L7.2395 32.6049H7.23033L7.17988 32.5906H7.1753H7.17071L7.12486 32.5762H7.12027H7.11568L7.06983 32.5571H7.06524H7.06066C7.0469 32.5523 7.03314 32.5475 7.01939 32.538H7.0148L7.00563 32.5332L6.97812 32.5188L6.96894 32.514L6.9506 32.5045L6.94143 32.4997L6.93226 32.4949L6.92309 32.4901L6.91392 32.4853L6.89557 32.4758L6.8864 32.471L6.87723 32.4662L6.86806 32.4614L6.85889 32.4566L6.84055 32.4471L6.83138 32.4423L6.81303 32.4327L6.80386 32.4279L6.78093 32.4136L6.77176 32.4088L6.76259 32.404L6.75342 32.3992L6.72591 32.3849L6.71674 32.3801C6.24442 32.1265 5.90049 31.7103 5.72165 31.1793C5.57491 30.7583 5.53823 30.299 5.57033 29.8398V29.8254V29.8111V29.7776V29.7632V29.7489V29.7345V29.6867V29.6723V29.658V29.6532V29.6484V29.6245V29.6101V29.5766V29.5623V29.5575V29.5432L5.57491 29.5001V29.4858V29.4762V29.4666L5.5795 29.4188V29.4044V29.3949V29.3901L5.58409 29.3279V29.3183V29.3135L5.59326 29.2466V29.237V29.2322V29.2274L5.60243 29.1652V29.1509V29.1461L5.60701 29.1317L5.61619 29.0695V29.0648V29.06L5.62994 28.9786L5.64828 28.8973L5.66663 28.816C6.06099 27.0028 7.46419 25.7973 8.76651 26.1178L8.81695 26.1321C8.83529 26.1369 8.85364 26.1417 8.86739 26.1465C8.88574 26.1513 8.89949 26.1561 8.91783 26.1656L8.96828 26.1848L9.01872 26.2039L9.02789 26.2087L9.06916 26.2278L9.08292 26.2326L9.12419 26.2517H9.12877L9.13795 26.2565L9.1838 26.2804H9.18839L9.19297 26.2852L9.22507 26.3044L9.23883 26.3139L9.248 26.3187L9.2801 26.3426L9.30303 26.357L9.33513 26.3809L9.35347 26.3953H9.35806L9.37181 26.4048L9.38557 26.4144L9.4085 26.4335L9.42225 26.4431L9.43601 26.4527L9.45894 26.4718L9.4727 26.4814L9.49562 26.5005L9.50938 26.5101L9.52314 26.5196L9.55982 26.5531L9.57358 26.5627L9.61026 26.5962L9.62402 26.5244Z" fill="white"/>
<path fill-rule="evenodd" clip-rule="evenodd" d="M26.8566 69.0594C26.8566 69.0594 30.2729 71.4897 33.1893 71.5423C36.1058 71.5949 48.4457 64.0409 48.4457 64.0409L49.4041 53.1668C49.4041 53.1668 46.9233 45.5937 46.0153 44.6225C45.112 43.6513 44.8643 44.9717 43.6721 46.2443L43.0484 40.7283C43.0484 40.7283 37.3118 35.5041 34.4458 35.5711C31.5798 35.6381 19.8681 48.3684 19.8681 48.3684L15.9795 55.6258C15.9795 55.6258 16.7407 60.2615 19.8727 63.4333C22.3031 65.8971 29.42 62.4622 32.4923 60.8021C29.7547 64.6628 27.6958 67.6911 27.6958 67.6911L26.852 69.0546L26.8566 69.0594Z" fill="#FAB403"/>
<path d="M28.7413 34.5426C31.1808 34.4277 33.5103 35.0162 35.8077 35.796C35.7206 36.1452 35.6243 36.4944 35.5142 36.8389C33.0426 44.7995 27.7599 50.7987 20.6706 54.5638C19.2261 55.3101 17.7358 55.8889 16.2225 56.4582C15.1816 52.985 14.8743 49.8563 15.5943 46.2778C21.3263 44.1059 25.6047 39.9102 28.7413 34.5426ZM48.9364 51.6407C49.2986 51.9899 49.372 53.0137 49.4683 53.5304C50.1607 57.1806 50.0186 60.5534 49.5417 64.2084C49.294 66.0933 48.9868 67.9878 49.0235 69.8966C49.0648 72.1738 49.6104 74.3697 50.3762 76.489C46.4785 73.6808 43.0301 73.0541 38.472 72.5326C36.4039 72.3795 34.3908 71.7528 32.3272 71.5327C35.6793 70.4228 38.472 68.8106 41.1591 66.4234C45.543 62.5244 48.4824 57.726 48.9364 51.6407ZM40.884 38.9487C42.7641 40.2164 45.5797 43.0007 46.2721 45.2827C46.937 47.4738 44.7038 53.3247 43.6583 55.3388C40.3475 61.735 33.8405 67.1219 27.2005 69.2077C26.6319 68.9781 26.0954 68.7006 25.5497 68.4135C25.2562 68.2365 24.9627 68.0499 24.6784 67.8586C24.3895 67.6672 24.1098 67.4663 23.8301 67.2606C23.5549 67.0549 23.2798 66.8396 23.0138 66.6195C22.7479 66.3995 22.4819 66.1698 22.2251 65.9402C21.9683 65.7058 21.7161 65.4666 21.4685 65.2226C21.2208 64.9786 20.9824 64.725 20.7485 64.4667C20.5147 64.2084 20.2854 63.9453 20.0607 63.6773C19.836 63.4094 19.6205 63.132 19.4095 62.8545C23.3944 62.1417 27.3243 60.2041 30.5205 57.6495C36.2938 53.0329 39.9348 46.4835 40.8794 38.963L40.884 38.9487Z" fill="#053D27"/>
</svg>
