<svg width="18" height="18" viewBox="0 0 18 18" fill="none" xmlns="http://www.w3.org/2000/svg">
<path d="M11.4287 4.99972C11.4287 4.33546 11.4287 4.00332 11.3557 3.73082C11.1576 2.99134 10.5799 2.41374 9.84047 2.21559C9.56797 2.14258 9.23583 2.14258 8.57157 2.14258C7.9073 2.14258 7.57517 2.14258 7.30267 2.21559C6.56319 2.41374 5.98559 2.99134 5.78744 3.73082C5.71443 4.00332 5.71443 4.33546 5.71443 4.99972M9.143 12.4997H12.643C12.843 12.4997 12.943 12.4997 13.0194 12.4608C13.0866 12.4266 13.1413 12.3719 13.1755 12.3047C13.2144 12.2283 13.2144 12.1283 13.2144 11.9283V10.214C13.2144 10.014 13.2144 9.91398 13.1755 9.83758C13.1413 9.77038 13.0866 9.71575 13.0194 9.6815C12.943 9.64258 12.843 9.64258 12.643 9.64258H9.143C8.94298 9.64258 8.84297 9.64258 8.76657 9.6815C8.69937 9.71575 8.64474 9.77038 8.6105 9.83758C8.57157 9.91398 8.57157 10.014 8.57157 10.214V11.9283C8.57157 12.1283 8.57157 12.2283 8.6105 12.3047C8.64474 12.3719 8.69937 12.4266 8.76657 12.4608C8.84297 12.4997 8.94298 12.4997 9.143 12.4997ZM4.85728 14.9997H12.2859C13.486 14.9997 14.086 14.9997 14.5444 14.7662C14.9476 14.5607 15.2754 14.2329 15.4809 13.8297C15.7144 13.3713 15.7144 12.7713 15.7144 11.5711V8.42829C15.7144 7.22818 15.7144 6.62812 15.4809 6.16974C15.2754 5.76654 14.9476 5.43872 14.5444 5.23328C14.086 4.99972 13.486 4.99972 12.2859 4.99972H4.85728C3.65717 4.99972 3.05711 4.99972 2.59873 5.23328C2.19553 5.43872 1.86771 5.76654 1.66227 6.16974C1.42871 6.62812 1.42871 7.22818 1.42871 8.42829V11.5711C1.42871 12.7713 1.42871 13.3713 1.66227 13.8297C1.86771 14.2329 2.19553 14.5607 2.59873 14.7662C3.05711 14.9997 3.65717 14.9997 4.85728 14.9997Z" stroke="white" stroke-width="1.07143" stroke-linecap="round" stroke-linejoin="round"/>
</svg>
