<svg width="24" height="30" viewBox="0 0 24 30" fill="none" xmlns="http://www.w3.org/2000/svg">
<path d="M18.2927 29.9997H1.95123C0.873574 29.9997 0 29.1261 0 28.0485V13.6583C0 12.5806 0.873574 11.707 1.95123 11.707H16.3414C17.4191 11.707 18.2927 12.5806 18.2927 13.6583V29.9997Z" fill="#053D27"/>
<g opacity="0.2">
<path opacity="0.4" d="M16.3413 11.707H13.9023C14.9799 11.707 15.8535 12.5806 15.8535 13.6583V16.5115C15.8535 17.0694 15.5366 17.5794 15.0355 17.8245C12.5614 19.0343 10.8535 21.5774 10.8535 24.5119C10.8535 26.6824 11.788 28.6386 13.2757 29.9997H18.2925V13.6583C18.2925 12.5806 17.4189 11.707 16.3413 11.707Z" fill="#E8EDFB"/>
</g>
<path d="M2.75342 6.39287V11.7073H5.31437V6.39287C5.31437 4.27658 7.02994 2.56102 9.14623 2.56102C11.2625 2.56102 12.9781 4.27658 12.9781 6.39287V11.7073H15.539V6.39287C15.5391 2.86219 12.677 0 9.14629 0C5.61561 0 2.75342 2.86219 2.75342 6.39287Z" fill="white"/>
<g opacity="0.3">
<path d="M2.75342 9.75586H5.31437V11.7071H2.75342V9.75586Z" fill="#A5A5A5"/>
</g>
<g opacity="0.3">
<path d="M12.978 9.75586H15.539V11.7071H12.978V9.75586Z" fill="#A5A5A5"/>
</g>
<path d="M18.2925 30.0001C21.3234 30.0001 23.7804 27.5431 23.7804 24.5122C23.7804 21.4814 21.3234 19.0244 18.2925 19.0244C15.2617 19.0244 12.8047 21.4814 12.8047 24.5122C12.8047 27.5431 15.2617 30.0001 18.2925 30.0001Z" fill="#FF7272"/>
<path opacity="0.2" d="M21.16 19.833C21.6725 20.6676 21.9682 21.6495 21.9682 22.7006C21.9682 25.7314 19.5113 28.1884 16.4804 28.1884C15.4293 28.1884 14.4473 27.8927 13.6128 27.3802C14.5781 28.952 16.3127 30.0004 18.2924 30.0004C21.3233 30.0004 23.7803 27.5435 23.7803 24.5126C23.7803 22.5329 22.7318 20.7982 21.16 19.833Z" fill="#FF3636"/>
<path d="M11.0978 18.751C11.0978 17.6734 10.2242 16.7998 9.14654 16.7998C8.06889 16.7998 7.19531 17.6734 7.19531 18.751C7.19531 19.4731 7.58789 20.1031 8.1709 20.4406V23.9326C8.1709 24.4714 8.60772 24.9082 9.14648 24.9082C9.68531 24.9082 10.1221 24.4714 10.1221 23.9326V20.4406C10.7052 20.1031 11.0978 19.4731 11.0978 18.751Z" fill="white"/>
<path d="M18.2928 26.6787C18.0501 26.6787 17.8534 26.482 17.8534 26.2393V24.816C17.8534 24.5734 18.0501 24.3766 18.2928 24.3766C18.7093 24.3766 19.0968 24.21 19.384 23.9076C19.671 23.6053 19.8171 23.2088 19.7954 22.7912C19.7549 22.0086 19.1085 21.3833 18.3241 21.3675C17.5637 21.3529 16.9076 21.9084 16.8026 22.6614C16.7929 22.7303 16.7881 22.8012 16.7881 22.8718C16.7881 23.1145 16.5914 23.3113 16.3486 23.3113C16.1059 23.3113 15.9092 23.1145 15.9092 22.8718C15.9092 22.7607 15.9169 22.649 15.9321 22.54C16.0988 21.3462 17.1347 20.4656 18.3418 20.4887C19.5848 20.5137 20.6088 21.5052 20.6732 22.7457C20.7075 23.4063 20.476 24.0339 20.0213 24.5127C19.6694 24.8834 19.2223 25.1251 18.7323 25.2156V26.2393C18.7323 26.482 18.5355 26.6787 18.2928 26.6787Z" fill="white"/>
<path d="M18.2925 28.5352C18.5352 28.5352 18.7319 28.3384 18.7319 28.0957C18.7319 27.853 18.5352 27.6562 18.2925 27.6562C18.0498 27.6562 17.853 27.853 17.853 28.0957C17.853 28.3384 18.0498 28.5352 18.2925 28.5352Z" fill="white"/>
</svg>
