<svg width="51" height="51" viewBox="0 0 51 51" fill="none" xmlns="http://www.w3.org/2000/svg">
<path d="M34.3311 33.564L28.4407 32.9552L26.628 50.4956C32.977 50.153 38.9635 47.4292 43.393 42.8676C47.8224 38.3061 50.3692 32.2422 50.5252 25.8858C50.6812 19.5294 48.4349 13.3479 44.2345 8.57455C40.0341 3.80123 34.1884 0.787074 27.8638 0.133457C21.5391 -0.520161 15.2006 1.23482 10.1128 5.04824C5.02499 8.86167 1.562 14.4532 0.414761 20.7071C-0.732481 26.961 0.520376 33.4176 3.92336 38.7886C7.32635 44.1596 12.6293 48.0502 18.7741 49.684L20.5868 32.1436L14.1728 31.4807L14.9303 24.1504L21.3443 24.8132L21.9531 18.9228C23.1048 11.1922 28.4728 8.74828 38.0572 11.5909L37.4214 17.7432L34.018 17.3914C31.4783 17.2172 30.034 18.3909 29.6852 20.9126L29.1982 25.6249L36.2013 26.3486" fill="white"/>
</svg>
